<?xml version="1.0" standalone="no"?>
<!DOCTYPE svg PUBLIC "-//W3C//DTD SVG 20010904//EN"
 "http://www.w3.org/TR/2001/REC-SVG-20010904/DTD/svg10.dtd">
<svg version="1.0" xmlns="http://www.w3.org/2000/svg"
 width="512.000000pt" height="512.000000pt" viewBox="0 0 512.000000 512.000000"
 preserveAspectRatio="xMidYMid meet">

<g transform="translate(0.000000,512.000000) scale(0.100000,-0.100000)"
fill="#000000" stroke="none">
<path d="M325 5110 c-11 -4 -87 -75 -168 -157 -123 -124 -149 -155 -153 -185
-6 -33 7 -61 136 -295 78 -142 148 -265 157 -275 8 -9 78 -55 156 -102 l142
-85 700 -700 700 -701 -174 -174 -175 -175 -43 39 c-36 34 -49 40 -85 40 l-43
0 -638 -638 c-351 -350 -658 -665 -683 -698 -141 -196 -161 -430 -55 -650 96
-201 301 -337 529 -351 113 -7 211 14 322 68 85 41 87 44 748 703 469 467 665
670 671 691 10 39 -2 72 -45 115 l-34 36 80 79 80 80 363 -363 c315 -315 367
-363 399 -368 63 -11 118 37 118 103 0 21 -41 68 -197 225 l-198 198 308 308
307 307 644 -645 c581 -583 646 -651 675 -710 85 -176 56 -367 -78 -501 -98
-97 -236 -143 -367 -121 -121 20 -177 56 -359 233 -154 150 -166 159 -202 159
-72 0 -119 -82 -85 -146 6 -11 84 -91 174 -179 228 -224 318 -269 538 -269 99
0 126 4 194 27 102 36 155 68 233 140 122 115 189 258 200 427 7 111 -14 210
-68 320 l-41 85 -832 833 -831 832 195 196 c172 172 349 324 377 324 5 0 20
-11 33 -25 l24 -26 -17 -63 c-31 -117 -33 -111 118 -266 163 -165 209 -194
305 -194 107 1 131 18 436 326 248 250 273 278 289 327 21 65 16 140 -13 197
-11 22 -85 103 -164 182 -162 159 -161 159 -275 126 l-56 -16 -34 35 -35 35
26 44 c16 28 26 60 26 84 0 38 -11 50 -447 487 -441 440 -518 509 -638 569
-290 146 -639 141 -924 -13 -110 -59 -166 -104 -339 -273 -233 -228 -232 -219
-56 -397 70 -70 140 -133 155 -139 37 -16 67 -8 115 31 100 79 210 100 319 58
52 -19 79 -41 203 -163 79 -78 152 -158 163 -178 23 -44 25 -125 5 -171 -8
-18 -152 -169 -320 -337 l-306 -305 -701 700 -700 700 -86 143 c-49 81 -100
154 -117 166 -63 46 -514 286 -537 285 -13 0 -33 -4 -44 -9z m2895 -217 c87
-17 219 -76 293 -130 60 -42 837 -812 837 -827 0 -6 -11 -33 -25 -60 -29 -57
-31 -76 -11 -114 21 -40 186 -199 219 -212 22 -8 46 -6 105 10 l77 19 88 -87
c79 -78 117 -126 117 -149 0 -4 -116 -123 -257 -265 -200 -200 -263 -258 -283
-258 -18 0 -51 27 -126 101 l-101 101 19 66 c28 101 23 113 -101 235 -146 145
-131 145 -359 -23 l-33 -24 -186 186 -186 186 22 51 c47 110 35 249 -32 359
-39 65 -314 337 -377 374 -154 89 -365 94 -506 13 l-41 -24 -39 40 -39 40 125
122 c142 140 239 205 365 249 140 48 274 54 435 21z m-2633 -113 l198 -110 54
-91 53 -92 -130 -129 -129 -130 -92 53 -91 54 -111 199 -110 199 78 79 c42 43
79 78 80 78 1 0 91 -49 200 -110z m2040 -2287 l-117 -118 -860 860 -860 860
117 117 118 118 860 -860 860 -860 -118 -117z m723 822 l175 -175 -165 -165
c-131 -132 -169 -165 -185 -160 -92 27 -193 11 -260 -39 l-32 -25 -114 115
-114 114 255 255 c140 140 257 255 260 255 3 0 84 -79 180 -175z m-96 -835
l151 -150 -308 -307 -307 -308 -150 151 c-124 124 -150 155 -150 179 0 25 42
71 278 307 236 236 282 278 307 278 24 0 55 -26 179 -150z m-997 -132 l112
-111 -25 -32 c-50 -66 -66 -157 -42 -237 l11 -39 -84 -85 -84 -84 -177 177
-178 178 172 172 c95 95 175 173 178 173 2 0 55 -50 117 -112z m-432 -558
l300 -300 -590 -591 c-325 -325 -608 -603 -630 -618 -120 -83 -289 -97 -423
-36 -75 35 -166 125 -205 204 -30 63 -32 72 -32 181 0 198 -42 144 664 853
333 334 608 607 611 607 3 0 140 -135 305 -300z"/>
<path d="M3479 891 c-49 -49 -38 -125 23 -157 66 -34 143 12 143 88 0 33 -6
45 -33 69 -44 40 -93 40 -133 0z"/>
</g>
</svg>
